<svg width="32" height="32" viewBox="0 0 32 32" fill="none" xmlns="http://www.w3.org/2000/svg">
<g id="Bag_alt_light">
<path id="Vector 9 (Stroke)" fill-rule="evenodd" clip-rule="evenodd" d="M10.6667 16.6667C10.2985 16.6667 10 16.3683 10 16.0001L10 10.6667C10 7.35304 12.6863 4.66675 16 4.66675C19.3137 4.66675 22 7.35304 22 10.6667L22 16.0001C22 16.3683 21.7015 16.6667 21.3333 16.6667C20.9651 16.6667 20.6667 16.3683 20.6667 16.0001L20.6667 10.6667C20.6667 8.08942 18.5773 6.00008 16 6.00008C13.4227 6.00008 11.3333 8.08942 11.3333 10.6667L11.3333 16.0001C11.3333 16.3683 11.0349 16.6667 10.6667 16.6667Z" fill="white"/>
<path id="Rectangle 1 (Stroke)" fill-rule="evenodd" clip-rule="evenodd" d="M10.1943 11.3333H21.8057C22.9309 11.3332 23.8402 11.3332 24.5612 11.4268C25.3111 11.5242 25.9467 11.7321 26.47 12.2136C26.9933 12.6952 27.2533 13.3114 27.4126 14.0505C27.5658 14.7612 27.6413 15.6674 27.7347 16.7888L28.4275 25.1024C28.4806 25.7388 28.5261 26.2842 28.5022 26.7222C28.4767 27.19 28.3686 27.6449 28.0227 28.0208C27.6768 28.3967 27.2324 28.5422 26.7684 28.6065C26.3339 28.6667 25.7866 28.6666 25.148 28.6666H6.85202C6.21342 28.6666 5.6661 28.6667 5.23158 28.6065C4.76759 28.5422 4.32322 28.3967 3.97731 28.0208C3.6314 27.6449 3.52334 27.19 3.49783 26.7222C3.47394 26.2842 3.51942 25.7388 3.57249 25.1024L4.26529 16.7887C4.35872 15.6674 4.43422 14.7612 4.5874 14.0505C4.7467 13.3114 5.00669 12.6952 5.53 12.2136C6.05331 11.7321 6.68897 11.5242 7.43879 11.4268C8.15977 11.3332 9.06912 11.3332 10.1943 11.3333ZM7.61049 12.7491C7.00432 12.8278 6.67495 12.972 6.43281 13.1948C6.19067 13.4176 6.01958 13.7339 5.8908 14.3314C5.758 14.9476 5.68838 15.7672 5.59017 16.9457L4.90505 25.1672C4.84711 25.8624 4.81092 26.3148 4.82919 26.6496C4.8464 26.9652 4.90826 27.0634 4.95849 27.118C5.00871 27.1726 5.10143 27.2424 5.41451 27.2857C5.74663 27.3317 6.20046 27.3333 6.89814 27.3333H25.1019C25.7996 27.3333 26.2534 27.3317 26.5855 27.2857C26.8986 27.2424 26.9913 27.1726 27.0415 27.118C27.0918 27.0634 27.1536 26.9652 27.1708 26.6496C27.1891 26.3148 27.1529 25.8624 27.095 25.1672L26.4098 16.9457C26.3116 15.7672 26.242 14.9476 26.1092 14.3314C25.9804 13.7339 25.8093 13.4176 25.5672 13.1948C25.3251 12.972 24.9957 12.8278 24.3895 12.7491C23.7644 12.6679 22.9419 12.6666 21.7593 12.6666H10.2407C9.0581 12.6666 8.2356 12.6679 7.61049 12.7491Z" fill="white"/>
<path id="Ellipse 67" d="M30.6667 25.3333C30.6667 28.2789 28.2789 30.6667 25.3333 30.6667C22.3878 30.6667 20 28.2789 20 25.3333C20 22.3878 22.3878 20 25.3333 20C28.2789 20 30.6667 22.3878 30.6667 25.3333Z" fill="#EEEEEE"/>
<path id="1" d="M24.916 23.5187L24 24.0387V23.3667L25.212 22.6667H25.604V27.9467H24.916V23.5187Z" fill="#1F2736"/>
</g>
</svg>
