<svg width="32" height="32" viewBox="0 0 32 32" fill="none" xmlns="http://www.w3.org/2000/svg">
<path fill-rule="evenodd" clip-rule="evenodd" d="M11.3806 9.33325C11.7041 7.07172 13.649 5.33325 16 5.33325C18.351 5.33325 20.2959 7.07172 20.6194 9.33325H28V10.6666H20.6194C20.3271 12.7104 18.7105 14.327 16.6667 14.6193V26.6666H28V27.9999H4V26.6666H15.3333V14.6193C13.2895 14.327 11.6729 12.7104 11.3806 10.6666H4V9.33325H11.3806ZM16 6.66659C14.1591 6.66659 12.6667 8.15897 12.6667 9.99992C12.6667 11.8409 14.1591 13.3333 16 13.3333C17.841 13.3333 19.3333 11.8409 19.3333 9.99992C19.3333 8.15897 17.841 6.66659 16 6.66659Z" fill="white"/>
<path fill-rule="evenodd" clip-rule="evenodd" d="M24 12.0375L27.2254 17.4131C28.177 18.9991 28.007 21.0162 26.8032 22.4205C25.3297 24.1396 22.6703 24.1396 21.1968 22.4205C19.993 21.0162 19.823 18.9992 20.7746 17.4131L24 12.0375ZM24 14.629L21.9179 18.0991C21.2616 19.193 21.3789 20.5842 22.2091 21.5528C23.1505 22.6511 24.8495 22.6511 25.7909 21.5528C26.6211 20.5842 26.7384 19.193 26.0821 18.0991L24 14.629Z" fill="white"/>
<path fill-rule="evenodd" clip-rule="evenodd" d="M8 12.0375L11.2254 17.4131C12.177 18.9991 12.007 21.0162 10.8032 22.4205C9.32974 24.1396 6.67026 24.1396 5.19676 22.4205C3.99304 21.0162 3.823 18.9992 4.77463 17.4131L8 12.0375ZM8 14.629L5.91795 18.0991C5.2616 19.193 5.37888 20.5842 6.20911 21.5528C7.15047 22.6511 8.84953 22.6511 9.79089 21.5528C10.6211 20.5842 10.7384 19.193 10.082 18.0991L8 14.629Z" fill="white"/>
</svg>
