<svg width="28" height="29" viewBox="0 0 28 29" fill="none" xmlns="http://www.w3.org/2000/svg">
<g id="Balance">
<g id="Balance_2">
<path fill-rule="evenodd" clip-rule="evenodd" d="M9.95802 8.66675C10.2411 6.68791 11.9429 5.16675 14 5.16675C16.0571 5.16675 17.7589 6.68791 18.042 8.66675H24.5V9.83342H18.042C17.7862 11.6217 16.3717 13.0363 14.5833 13.2921V23.8334H24.5V25.0001H3.5V23.8334H13.4167V13.2921C11.6283 13.0363 10.2138 11.6217 9.95802 9.83342H3.5V8.66675H9.95802ZM14 6.33341C12.3892 6.33341 11.0833 7.63925 11.0833 9.25008C11.0833 10.8609 12.3892 12.1667 14 12.1667C15.6108 12.1667 16.9167 10.8609 16.9167 9.25008C16.9167 7.63925 15.6108 6.33341 14 6.33341Z" fill="black"/>
<path fill-rule="evenodd" clip-rule="evenodd" d="M21 11.033L23.8222 15.7366C24.6549 17.1244 24.5061 18.8893 23.4528 20.1181C22.1635 21.6223 19.8365 21.6223 18.5472 20.1181C17.4939 18.8893 17.3451 17.1244 18.1778 15.7366L21 11.033ZM21 13.3005L19.1782 16.3369C18.6039 17.2941 18.7065 18.5113 19.433 19.3589C20.2567 20.3198 21.7433 20.3198 22.567 19.3589C23.2935 18.5113 23.3961 17.294 22.8218 16.3369L21 13.3005Z" fill="black"/>
<path fill-rule="evenodd" clip-rule="evenodd" d="M7 11.033L9.8222 15.7366C10.6549 17.1244 10.5061 18.8893 9.45283 20.1181C8.16353 21.6223 5.83647 21.6223 4.54717 20.1181C3.49391 18.8893 3.34512 17.1244 4.1778 15.7366L7 11.033ZM7 13.3005L5.17821 16.3369C4.6039 17.2941 4.70652 18.5113 5.43297 19.3589C6.25666 20.3198 7.74334 20.3198 8.56703 19.3589C9.29348 18.5113 9.3961 17.294 8.82179 16.3369L7 13.3005Z" fill="black"/>
</g>
</g>
</svg>
