<svg width="32" height="32" viewBox="0 0 32 32" fill="none" xmlns="http://www.w3.org/2000/svg">
<g id="darhboard">
<path id="Rectangle 34 (Stroke)" fill-rule="evenodd" clip-rule="evenodd" d="M7.9562 4.66675C7.97078 4.66675 7.98541 4.66675 8.00008 4.66675L10.7106 4.66675C11.3016 4.66672 11.8108 4.66669 12.2186 4.72151C12.6556 4.78027 13.0745 4.91276 13.4143 5.25254C13.7541 5.59231 13.8866 6.01121 13.9453 6.44822C14.0001 6.856 14.0001 7.36521 14.0001 7.9562V10.7106C14.0001 11.3016 14.0001 11.8108 13.9453 12.2186C13.8866 12.6556 13.7541 13.0745 13.4143 13.4143C13.0745 13.7541 12.6556 13.8866 12.2186 13.9453C11.8108 14.0001 11.3016 14.0001 10.7106 14.0001H7.9562C7.36521 14.0001 6.856 14.0001 6.44822 13.9453C6.01121 13.8866 5.59231 13.7541 5.25254 13.4143C4.91276 13.0745 4.78027 12.6556 4.72151 12.2186C4.66669 11.8108 4.66672 11.3016 4.66675 10.7106L4.66675 8.00008C4.66675 7.98541 4.66675 7.97078 4.66675 7.9562C4.66672 7.36521 4.66669 6.856 4.72151 6.44822C4.78027 6.01121 4.91276 5.59231 5.25254 5.25254C5.59231 4.91276 6.01121 4.78027 6.44822 4.72151C6.856 4.66669 7.36521 4.66672 7.9562 4.66675ZM6.62589 6.04296C6.33673 6.08183 6.2461 6.1446 6.19535 6.19535C6.1446 6.2461 6.08183 6.33673 6.04296 6.62589C6.0015 6.93422 6.00008 7.3527 6.00008 8.00008V10.6668C6.00008 11.3141 6.0015 11.7326 6.04296 12.0409C6.08183 12.3301 6.1446 12.4207 6.19535 12.4715C6.2461 12.5222 6.33673 12.585 6.62589 12.6239C6.93422 12.6653 7.3527 12.6668 8.00008 12.6668H10.6668C11.3141 12.6668 11.7326 12.6653 12.0409 12.6239C12.3301 12.585 12.4207 12.5222 12.4715 12.4715C12.5222 12.4207 12.585 12.3301 12.6239 12.0409C12.6653 11.7326 12.6668 11.3141 12.6668 10.6668V8.00008C12.6668 7.3527 12.6653 6.93422 12.6239 6.62589C12.585 6.33673 12.5222 6.2461 12.4715 6.19535C12.4207 6.1446 12.3301 6.08183 12.0409 6.04296C11.7326 6.0015 11.3141 6.00008 10.6668 6.00008H8.00008C7.3527 6.00008 6.93422 6.0015 6.62589 6.04296Z" fill="#1F2736"/>
<path id="Rectangle 35 (Stroke)" fill-rule="evenodd" clip-rule="evenodd" d="M7.9562 18C7.97078 18 7.98541 18 8.00008 18L10.7106 18C11.3016 18 11.8108 17.9999 12.2186 18.0548C12.6556 18.1135 13.0745 18.246 13.4143 18.5858C13.7541 18.9256 13.8866 19.3445 13.9453 19.7815C14.0001 20.1892 14.0001 20.6985 14.0001 21.2894V24.0439C14.0001 24.6349 14.0001 25.1441 13.9453 25.5519C13.8866 25.9889 13.7541 26.4078 13.4143 26.7476C13.0745 27.0873 12.6556 27.2198 12.2186 27.2786C11.8108 27.3334 11.3016 27.3334 10.7106 27.3333H7.9562C7.36521 27.3334 6.856 27.3334 6.44822 27.2786C6.01121 27.2198 5.59231 27.0873 5.25254 26.7476C4.91276 26.4078 4.78027 25.9889 4.72151 25.5519C4.66669 25.1441 4.66672 24.6349 4.66675 24.0439L4.66675 21.3333C4.66675 21.3187 4.66675 21.304 4.66675 21.2894C4.66672 20.6985 4.66669 20.1892 4.72151 19.7815C4.78027 19.3445 4.91276 18.9256 5.25254 18.5858C5.59231 18.246 6.01121 18.1135 6.44822 18.0548C6.856 17.9999 7.36521 18 7.9562 18ZM6.62589 19.3762C6.33673 19.4151 6.2461 19.4778 6.19535 19.5286C6.1446 19.5793 6.08183 19.67 6.04296 19.9591C6.0015 20.2675 6.00008 20.686 6.00008 21.3333V24C6.00008 24.6474 6.0015 25.0659 6.04296 25.3742C6.08183 25.6634 6.1446 25.754 6.19535 25.8047C6.2461 25.8555 6.33673 25.9183 6.62589 25.9571C6.93422 25.9986 7.3527 26 8.00008 26H10.6668C11.3141 26 11.7326 25.9986 12.0409 25.9571C12.3301 25.9183 12.4207 25.8555 12.4715 25.8047C12.5222 25.754 12.585 25.6634 12.6239 25.3742C12.6653 25.0659 12.6668 24.6474 12.6668 24V21.3333C12.6668 20.686 12.6653 20.2675 12.6239 19.9591C12.585 19.67 12.5222 19.5793 12.4715 19.5286C12.4207 19.4778 12.3301 19.4151 12.0409 19.3762C11.7326 19.3348 11.3141 19.3333 10.6668 19.3333H8.00008C7.3527 19.3333 6.93422 19.3348 6.62589 19.3762Z" fill="#1F2736"/>
<path id="Rectangle 36 (Stroke)" fill-rule="evenodd" clip-rule="evenodd" d="M21.2894 18C21.304 18 21.3187 18 21.3333 18L24.0439 18C24.6349 18 25.1441 17.9999 25.5519 18.0548C25.9889 18.1135 26.4078 18.246 26.7476 18.5858C27.0873 18.9256 27.2198 19.3445 27.2786 19.7815C27.3334 20.1892 27.3334 20.6985 27.3333 21.2894V24.0439C27.3334 24.6349 27.3334 25.1441 27.2786 25.5519C27.2198 25.9889 27.0873 26.4078 26.7476 26.7476C26.4078 27.0873 25.9889 27.2198 25.5519 27.2786C25.1441 27.3334 24.6349 27.3334 24.0439 27.3333H21.2894C20.6985 27.3334 20.1892 27.3334 19.7815 27.2786C19.3445 27.2198 18.9256 27.0873 18.5858 26.7476C18.246 26.4078 18.1135 25.9889 18.0548 25.5519C17.9999 25.1441 18 24.6349 18 24.0439L18 21.3333C18 21.3187 18 21.304 18 21.2894C18 20.6985 17.9999 20.1892 18.0548 19.7815C18.1135 19.3445 18.246 18.9256 18.5858 18.5858C18.9256 18.246 19.3445 18.1135 19.7815 18.0548C20.1892 17.9999 20.6985 18 21.2894 18ZM19.9591 19.3762C19.67 19.4151 19.5793 19.4778 19.5286 19.5286C19.4778 19.5793 19.4151 19.67 19.3762 19.9591C19.3348 20.2675 19.3333 20.686 19.3333 21.3333V24C19.3333 24.6474 19.3348 25.0659 19.3762 25.3742C19.4151 25.6634 19.4778 25.754 19.5286 25.8047C19.5793 25.8555 19.67 25.9183 19.9591 25.9571C20.2675 25.9986 20.686 26 21.3333 26H24C24.6474 26 25.0659 25.9986 25.3742 25.9571C25.6634 25.9183 25.754 25.8555 25.8047 25.8047C25.8555 25.754 25.9183 25.6634 25.9571 25.3742C25.9986 25.0659 26 24.6474 26 24V21.3333C26 20.686 25.9986 20.2675 25.9571 19.9591C25.9183 19.67 25.8555 19.5793 25.8047 19.5286C25.754 19.4778 25.6634 19.4151 25.3742 19.3762C25.0659 19.3348 24.6474 19.3333 24 19.3333H21.3333C20.686 19.3333 20.2675 19.3348 19.9591 19.3762Z" fill="#1F2736"/>
<path id="Rectangle 37 (Stroke)" fill-rule="evenodd" clip-rule="evenodd" d="M21.2894 4.66675C21.304 4.66675 21.3187 4.66675 21.3333 4.66675L24.0439 4.66675C24.6349 4.66672 25.1441 4.66669 25.5519 4.72151C25.9889 4.78027 26.4078 4.91276 26.7476 5.25254C27.0873 5.59231 27.2198 6.01121 27.2786 6.44822C27.3334 6.856 27.3334 7.36521 27.3333 7.9562V10.7106C27.3334 11.3016 27.3334 11.8108 27.2786 12.2186C27.2198 12.6556 27.0873 13.0745 26.7476 13.4143C26.4078 13.7541 25.9889 13.8866 25.5519 13.9453C25.1441 14.0001 24.6349 14.0001 24.0439 14.0001H21.2894C20.6985 14.0001 20.1892 14.0001 19.7815 13.9453C19.3445 13.8866 18.9256 13.7541 18.5858 13.4143C18.246 13.0745 18.1135 12.6556 18.0548 12.2186C17.9999 11.8108 18 11.3016 18 10.7106L18 8.00008C18 7.98541 18 7.97078 18 7.9562C18 7.36521 17.9999 6.856 18.0548 6.44822C18.1135 6.01121 18.246 5.59231 18.5858 5.25254C18.9256 4.91276 19.3445 4.78027 19.7815 4.72151C20.1892 4.66669 20.6985 4.66672 21.2894 4.66675ZM19.9591 6.04296C19.67 6.08183 19.5793 6.1446 19.5286 6.19535C19.4778 6.2461 19.4151 6.33673 19.3762 6.62589C19.3348 6.93422 19.3333 7.3527 19.3333 8.00008V10.6668C19.3333 11.3141 19.3348 11.7326 19.3762 12.0409C19.4151 12.3301 19.4778 12.4207 19.5286 12.4715C19.5793 12.5222 19.67 12.585 19.9591 12.6239C20.2675 12.6653 20.686 12.6668 21.3333 12.6668H24C24.6474 12.6668 25.0659 12.6653 25.3742 12.6239C25.6634 12.585 25.754 12.5222 25.8047 12.4715C25.8555 12.4207 25.9183 12.3301 25.9571 12.0409C25.9986 11.7326 26 11.3141 26 10.6668V8.00008C26 7.3527 25.9986 6.93422 25.9571 6.62589C25.9183 6.33673 25.8555 6.2461 25.8047 6.19535C25.754 6.1446 25.6634 6.08183 25.3742 6.04296C25.0659 6.0015 24.6474 6.00008 24 6.00008H21.3333C20.686 6.00008 20.2675 6.0015 19.9591 6.04296Z" fill="#1F2736"/>
</g>
</svg>
