<svg width="32" height="32" viewBox="0 0 32 32" fill="none" xmlns="http://www.w3.org/2000/svg">
<g id="Favorite_light">
<path id="Vector 15 (Stroke)" fill-rule="evenodd" clip-rule="evenodd" d="M15.0393 10.6459C13.276 6.95144 8.23902 6.40902 5.72963 9.64334C3.74677 12.199 4.03307 15.8436 6.39067 18.0583L16 27.0852L25.6093 18.0583C27.9669 15.8436 28.2532 12.199 26.2703 9.64334C23.761 6.40902 18.724 6.95144 16.9607 10.6459L16 12.6588L15.0393 10.6459ZM16 9.60766C13.6211 5.44042 7.68563 4.94718 4.67619 8.82601C2.27174 11.9251 2.61891 16.3445 5.47777 19.0301L16 28.9146L26.5222 19.0301C29.3811 16.3445 29.7282 11.9251 27.3238 8.82601C24.3144 4.94718 18.3789 5.44042 16 9.60766Z" fill="white"/>
</g>
</svg>
