<svg width="28" height="29" viewBox="0 0 28 29" fill="none" xmlns="http://www.w3.org/2000/svg">
<g id="Favorite_light">
<path id="Vector 15 (Stroke)" fill-rule="evenodd" clip-rule="evenodd" d="M13.1594 9.81526C11.6165 6.58263 7.20917 6.10801 5.01345 8.93805C3.27845 11.1743 3.52896 14.3633 5.59186 16.3011L14 24.1997L22.4082 16.3011C24.4711 14.3633 24.7216 11.1743 22.9866 8.93805C20.7909 6.10801 16.3835 6.58263 14.8406 9.81526L14 11.5766L13.1594 9.81526ZM14 8.90682C11.9185 5.26049 6.72495 4.8289 4.09169 8.22288C1.9878 10.9346 2.29157 14.8016 4.79307 17.1515L14 25.8004L23.207 17.1515C25.7085 14.8016 26.0122 10.9346 23.9083 8.22289C21.2751 4.8289 16.0815 5.26049 14 8.90682Z" fill="#1F2736"/>
</g>
</svg>
