<svg width="17" height="16" viewBox="0 0 17 16" fill="none" xmlns="http://www.w3.org/2000/svg">
<g id="Home_light">
<path id="Rectangle 1" d="M3.83337 8.50637C3.83337 7.60119 3.83337 7.14861 4.01635 6.75078C4.19932 6.35296 4.54295 6.05842 5.23021 5.46934L5.89688 4.89791C7.13909 3.83316 7.76019 3.30078 8.50004 3.30078C9.23989 3.30078 9.86099 3.83316 11.1032 4.89791L11.7699 5.46934C12.4571 6.05842 12.8008 6.35296 12.9837 6.75078C13.1667 7.14861 13.1667 7.60119 13.1667 8.50637V11.3333C13.1667 12.5904 13.1667 13.2189 12.7762 13.6094C12.3857 14 11.7571 14 10.5 14H6.50004C5.24296 14 4.61442 14 4.2239 13.6094C3.83337 13.2189 3.83337 12.5904 3.83337 11.3333V8.50637Z" stroke="#626262"/>
</g>
</svg>
