<svg width="33" height="32" viewBox="0 0 33 32" fill="none" xmlns="http://www.w3.org/2000/svg">
<path fill-rule="evenodd" clip-rule="evenodd" d="M9.84085 22.4088C11.8141 21.2732 14.2131 20.6667 16.6668 20.6667C19.1205 20.6667 21.5196 21.2732 23.4928 22.4088C25.4657 23.5441 26.9271 25.1611 27.5978 27.0386C27.7217 27.3853 27.5411 27.7668 27.1943 27.8907C26.8476 28.0145 26.4661 27.8339 26.3422 27.4872C25.7975 25.9625 24.5807 24.5732 22.8278 23.5644C21.0753 22.5558 18.9093 22.0001 16.6668 22.0001C14.4243 22.0001 12.2584 22.5558 10.5059 23.5644C8.75301 24.5732 7.53614 25.9625 6.99143 27.4872C6.86756 27.8339 6.48606 28.0145 6.13933 27.8907C5.79261 27.7668 5.61195 27.3853 5.73582 27.0386C6.40658 25.1611 7.868 23.5441 9.84085 22.4088Z" fill="#1F2736"/>
<path fill-rule="evenodd" clip-rule="evenodd" d="M16.6667 6.00008C14.0894 6.00008 12.0001 8.08942 12.0001 10.6667C12.0001 13.2441 14.0894 15.3334 16.6667 15.3334C19.2441 15.3334 21.3334 13.2441 21.3334 10.6667C21.3334 8.08942 19.2441 6.00008 16.6667 6.00008ZM10.6667 10.6667C10.6667 7.35304 13.353 4.66675 16.6667 4.66675C19.9805 4.66675 22.6667 7.35304 22.6667 10.6667C22.6667 13.9805 19.9805 16.6667 16.6667 16.6667C13.353 16.6667 10.6667 13.9805 10.6667 10.6667Z" fill="#1F2736"/>
</svg>
